<?xml version="1.0" encoding="UTF-8"?>
<svg version="1.1" xmlns="http://www.w3.org/2000/svg" width="32" height="32">
<path d="M0 0 C3.87833776 2.41481408 6.18049301 4.53516096 7.5625 8.875 C8.37373483 13.30752019 7.37338028 16.14325705 5 20 C1.81110649 22.89225225 -0.7446783 24.24777252 -5 24.5 C-9.19621129 24.28295459 -11.7680908 22.69325767 -15 20 C-17.21666876 16.67499687 -17.77137913 14.96276172 -18 11 C-16.39346477 5.82338647 -14.55120919 2.95828597 -10 0 C-6.14217025 -1.28594325 -3.95337324 -0.93808857 0 0 Z M-7 3 C-3 4 -3 4 -3 4 Z M-13 7 C-12 9 -12 9 -12 9 Z M2 7 C1.67 7.66 1.34 8.32 1 9 C1.66 9 2.32 9 3 9 C2.67 8.34 2.34 7.68 2 7 Z M-4 8 C-3.34 8.66 -2.68 9.32 -2 10 C-2 9.34 -2 8.68 -2 8 C-2.66 8 -3.32 8 -4 8 Z M-13 15 C-10.32357511 17.18490007 -10.32357511 17.18490007 -8 17 C-8 16.34 -8 15.68 -8 15 C-9.65 15 -11.3 15 -13 15 Z M1 14 C0.34 14.66 -0.32 15.32 -1 16 C-0.34 16 0.32 16 1 16 C1.33 16.66 1.66 17.32 2 18 C2.33 17.01 2.66 16.02 3 15 C2.34 14.67 1.68 14.34 1 14 Z " fill="#10F1F6" transform="translate(21,4)"/>
<path d="M0 0 C3.87833776 2.41481408 6.18049301 4.53516096 7.5625 8.875 C8.37373483 13.30752019 7.37338028 16.14325705 5 20 C1.81110649 22.89225225 -0.7446783 24.24777252 -5 24.5 C-9.19621129 24.28295459 -11.7680908 22.69325767 -15 20 C-17.21666876 16.67499687 -17.77137913 14.96276172 -18 11 C-16.39346477 5.82338647 -14.55120919 2.95828597 -10 0 C-6.14217025 -1.28594325 -3.95337324 -0.93808857 0 0 Z M-15.4375 6.75 C-16.33375314 10.33501256 -16.16003788 13.53361463 -15 17 C-12.55871098 19.85809446 -10.7496463 21.57563251 -7.03515625 22.4765625 C-3.02476825 22.76906681 -1.10656108 22.06199917 2.4375 20 C5.17669053 16.79314279 6.01265832 15.11176725 6.23828125 10.99609375 C5.82761813 7.55594862 4.2430938 5.54621458 2 3 C-4.20188827 -1.5480514 -10.90491921 1.23207555 -15.4375 6.75 Z " fill="#047AB4" transform="translate(21,4)"/>
<path d="M0 0 C2.01822917 0.26041667 4.03645833 0.52083333 6.0546875 0.78125 C8.00498344 1.0372485 8.00498344 1.0372485 10 1 C12.00212229 1.32033957 14.00239695 1.65259077 16 2 C16 3.98 16 5.96 16 8 C13.18743719 8.02684312 10.37512759 8.04676188 7.5625 8.0625 C6.76005859 8.07087891 5.95761719 8.07925781 5.13085938 8.08789062 C3.08704779 8.0965143 1.04316098 8.0522815 -1 8 C-2 7 -2 7 -2.0625 4.4375 C-2.041875 3.633125 -2.02125 2.82875 -2 2 C-1.34 2 -0.68 2 0 2 C0 1.34 0 0.68 0 0 Z " fill="#F0E25D" transform="translate(9,11)"/>
<path d="M0 0 C5.94 0 11.88 0 18 0 C18 0.99 18 1.98 18 3 C12.39 3 6.78 3 1 3 C0.67 2.01 0.34 1.02 0 0 Z " fill="#FABE20" transform="translate(7,16)"/>
<path d="M0 0 C6.75 -0.125 6.75 -0.125 9 1 C9 1.66 9 2.32 9 3 C5.24928186 4.82177738 2.99362668 5.36624071 -1 4 C-2.8125 2.4375 -2.8125 2.4375 -4 1 C-2.68 1.33 -1.36 1.66 0 2 C0 1.34 0 0.68 0 0 Z " fill="#41788B" transform="translate(13,19)"/>
<path d="M0 0 C1.48199902 0.44909061 2.96055236 0.90956564 4.4375 1.375 C5.26121094 1.63023438 6.08492187 1.88546875 6.93359375 2.1484375 C9 3 9 3 10 5 C8.20866022 5.05391993 6.41686101 5.09275571 4.625 5.125 C3.62726562 5.14820313 2.62953125 5.17140625 1.6015625 5.1953125 C-1 5 -1 5 -3 3 C-2.01 2.01 -1.02 1.02 0 0 Z " fill="#468395" transform="translate(13,7)"/>
<path d="M0 0 C1.66611905 -0.042721 3.33382885 -0.04063832 5 0 C5.33 0.33 5.66 0.66 6 1 C7.84891946 1.23363881 9.70488031 1.41303635 11.5625 1.5625 C12.57441406 1.64628906 13.58632813 1.73007813 14.62890625 1.81640625 C15.80259766 1.90728516 15.80259766 1.90728516 17 2 C17 2.33 17 2.66 17 3 C11.39 3 5.78 3 0 3 C0 2.01 0 1.02 0 0 Z " fill="#FBDE4A" transform="translate(7,13)"/>
<path d="M0 0 C5.61 0 11.22 0 17 0 C17 0.99 17 1.98 17 3 C16.21882813 2.76990234 16.21882813 2.76990234 15.421875 2.53515625 C12.36721485 1.86017489 9.36984029 1.65588882 6.25 1.4375 C5.07953125 1.35371094 3.9090625 1.26992188 2.703125 1.18359375 C1.81109375 1.12300781 0.9190625 1.06242187 0 1 C0 0.67 0 0.34 0 0 Z " fill="#F7CA31" transform="translate(8,16)"/>
<path d="" fill="#74947F" transform="translate(0,0)"/>
</svg>
